<?xml version="1.0" standalone="no"?>
<!DOCTYPE svg PUBLIC "-//W3C//DTD SVG 20010904//EN"
 "http://www.w3.org/TR/2001/REC-SVG-20010904/DTD/svg10.dtd">
<svg version="1.0" xmlns="http://www.w3.org/2000/svg"
 width="1920.000000pt" height="2160.000000pt" viewBox="0 0 1920.000000 2160.000000"
 preserveAspectRatio="xMidYMid meet">

<g transform="translate(0.000000,2160.000000) scale(0.100000,-0.100000)"
fill="#000000" stroke="none">
<path d="M3775 19309 c-96 -13 -249 -67 -336 -120 -99 -59 -230 -192 -312
-315 -82 -124 -283 -532 -370 -754 -200 -507 -300 -948 -386 -1690 -72 -618
-84 -864 -87 -1730 -2 -798 -4 -847 -50 -1058 -73 -332 -180 -546 -490 -982
-358 -504 -732 -1163 -892 -1569 -114 -288 -194 -615 -232 -941 -80 -700 103
-1757 454 -2619 287 -702 635 -1240 1135 -1753 641 -658 1402 -1193 2246
-1580 543 -250 1153 -476 1795 -668 722 -216 1342 -300 2115 -287 1099 18
2074 225 3090 655 211 90 610 285 810 397 826 462 1659 1113 2264 1770 419
454 685 791 1009 1277 164 246 243 380 347 587 156 312 273 629 354 963 45
182 83 297 137 416 232 506 475 1173 634 1742 302 1078 749 2323 1192 3315
244 546 372 923 457 1345 149 741 133 1144 -61 1534 -69 139 -142 239 -262
365 -236 245 -414 340 -637 341 -203 0 -880 -163 -1324 -318 -496 -175 -615
-228 -1410 -634 -718 -367 -1121 -561 -1933 -929 -416 -189 -575 -247 -802
-293 -199 -40 -314 -49 -524 -43 -376 11 -499 43 -1511 397 -533 186 -793 249
-1242 300 -246 28 -725 28 -972 0 -310 -35 -546 -80 -789 -150 -56 -17 -104
-30 -106 -30 -2 0 -43 64 -92 143 -499 810 -1181 1651 -1907 2351 -233 225
-306 286 -434 362 -275 163 -600 238 -878 203z m205 -404 c310 -47 558 -171
793 -395 148 -140 154 -151 198 -323 88 -345 107 -458 118 -677 6 -113 17
-255 25 -315 37 -279 43 -544 15 -703 -43 -249 -105 -411 -314 -827 -100 -198
-195 -390 -210 -427 -16 -37 -32 -64 -36 -60 -3 4 -48 123 -100 265 -51 141
-96 257 -100 257 -3 0 -35 -44 -70 -97 -35 -54 -120 -170 -188 -258 -68 -88
-153 -199 -188 -247 -41 -56 -72 -88 -83 -88 -25 0 -155 41 -264 84 -50 20
-91 34 -93 32 -2 -2 21 -52 50 -112 56 -112 98 -219 141 -359 39 -126 79 -285
74 -290 -2 -3 -38 4 -79 15 -96 25 -176 27 -183 3 -3 -10 -12 -85 -21 -168
-53 -504 -139 -776 -295 -936 -82 -83 -163 -120 -280 -127 -84 -4 -96 -2 -205
34 l-115 39 5 30 c3 16 35 257 71 535 75 571 74 558 38 1085 -51 745 45 1736
243 2520 108 429 199 663 366 940 129 215 369 509 462 566 37 23 96 24 225 4z
m14077 -1547 c134 -143 229 -343 270 -568 20 -116 23 -506 5 -675 -41 -370
-134 -699 -312 -1105 -272 -623 -736 -1801 -953 -2420 -35 -102 -183 -594
-327 -1095 -144 -500 -263 -911 -265 -913 -1 -2 -40 24 -86 57 -107 76 -227
143 -305 170 -198 66 -453 86 -735 57 -185 -20 -235 -13 -271 35 -26 35 -13
80 48 174 46 70 46 70 41 144 -5 80 -12 91 -64 91 -28 0 -49 -16 -149 -114
-190 -188 -316 -258 -469 -260 -102 -1 -188 27 -290 96 -116 77 -179 168 -179
258 0 62 26 102 106 161 134 100 157 152 138 316 -15 140 -42 261 -165 763
-63 256 -122 510 -131 565 -43 266 17 356 358 539 135 72 160 115 118 202 -16
32 -41 56 -106 100 -180 125 -206 146 -234 191 -38 59 -46 116 -32 234 14 121
50 236 112 361 112 225 278 419 587 685 203 175 337 273 953 695 69 47 215
154 325 238 716 546 985 719 1386 893 157 69 494 175 560 177 9 0 38 -24 66
-52z m-9394 -1339 c95 -6 217 -16 272 -23 l100 -11 6 -75 c4 -41 12 -91 19
-110 96 -260 610 -614 1515 -1043 375 -177 430 -206 515 -270 360 -272 792
-969 1140 -1837 69 -173 124 -329 118 -335 -2 -2 -32 -12 -66 -20 -56 -15 -72
-15 -174 -1 -115 16 -234 21 -262 10 -12 -5 -16 -21 -16 -73 0 -58 6 -78 50
-169 33 -69 66 -120 101 -157 l52 -55 -31 0 c-45 0 -139 -37 -192 -75 -150
-109 -299 -332 -344 -516 -31 -124 -33 -119 127 -338 287 -392 499 -707 560
-832 25 -52 56 -130 68 -174 29 -107 22 -229 -26 -475 -49 -244 -57 -401 -26
-512 45 -165 126 -324 411 -803 95 -159 197 -335 226 -390 148 -280 138 -414
-36 -526 -79 -51 -169 -97 -234 -120 -92 -33 -103 -110 -37 -261 59 -134 208
-400 309 -553 73 -110 115 -159 272 -316 102 -103 228 -221 280 -264 52 -43
96 -81 98 -85 3 -9 -378 -284 -606 -437 -319 -213 -699 -443 -982 -594 -465
-247 -1019 -476 -1489 -615 -1438 -426 -2731 -440 -4101 -45 -400 115 -891
290 -1255 448 -356 155 -884 426 -1188 610 -830 503 -1524 1179 -2009 1958
-356 573 -612 1211 -728 1820 -70 370 -94 622 -94 995 0 423 2 439 145 931
l122 416 116 32 c64 18 216 75 338 127 314 134 244 116 642 159 228 25 351 76
351 145 0 35 -51 107 -159 224 -51 54 -96 107 -102 117 -48 90 323 690 915
1479 403 536 789 984 1057 1226 408 367 974 677 1849 1011 713 273 688 264
727 257 23 -3 64 1 100 10 257 67 617 117 998 139 130 8 404 6 558 -4z"/>
<path d="M4449 14357 c-120 -42 -227 -112 -294 -193 -75 -91 -244 -339 -271
-397 -46 -101 -58 -179 -58 -362 0 -143 4 -183 22 -250 62 -227 218 -401 406
-451 30 -8 103 -14 181 -14 331 0 629 113 831 314 169 170 248 352 247 576 -1
359 -176 635 -476 751 -114 43 -208 59 -360 59 -123 0 -138 -2 -228 -33z m210
-211 c27 -14 51 -53 51 -82 0 -29 -29 -71 -57 -82 -15 -6 -53 -12 -83 -14 -70
-5 -201 -69 -272 -133 -55 -50 -78 -54 -125 -25 -45 27 -53 75 -22 130 38 67
227 179 354 211 51 12 125 10 154 -5z m260 -36 c25 -13 45 -64 37 -95 -17 -66
-101 -88 -151 -38 -23 24 -26 34 -22 68 4 24 14 47 27 57 24 20 81 24 109 8z"/>
<path d="M9625 13691 c-141 -23 -291 -91 -374 -171 -64 -61 -113 -138 -161
-253 -104 -252 -140 -401 -140 -584 0 -198 37 -301 140 -396 77 -72 148 -107
356 -176 338 -113 516 -147 723 -138 76 3 162 13 195 21 271 74 456 228 527
439 44 132 63 400 38 559 -25 160 -95 305 -196 405 -112 110 -284 180 -652
263 -146 34 -353 47 -456 31z m670 -294 c73 -20 113 -43 130 -77 22 -43 19
-83 -10 -115 -30 -32 -63 -31 -155 4 -44 16 -79 20 -174 21 -113 0 -123 -2
-183 -31 -69 -34 -99 -33 -133 1 -29 29 -27 91 4 127 38 45 111 76 196 84 100
10 263 2 325 -14z m258 -347 c33 -26 43 -70 23 -108 -18 -34 -33 -42 -86 -42
-47 0 -80 35 -80 87 0 71 85 109 143 63z"/>
<path d="M5125 11519 c-27 -4 -72 -14 -98 -21 l-48 -13 32 -50 c17 -28 62 -88
98 -135 94 -120 171 -233 217 -318 21 -41 60 -93 86 -117 42 -40 46 -47 39
-77 -4 -18 -3 -80 2 -138 16 -180 -21 -387 -95 -537 -36 -74 -124 -163 -161
-163 -29 0 -317 97 -527 177 -405 155 -797 344 -1052 509 -102 65 -143 84
-186 84 -87 0 -124 -84 -64 -147 62 -66 531 -326 827 -459 511 -228 1203 -456
1650 -543 366 -71 461 -82 860 -102 574 -29 1314 27 2120 162 223 37 340 63
570 126 72 20 122 26 252 30 186 6 307 -9 456 -58 116 -38 178 -39 206 -3 27
34 27 89 2 131 -20 31 -423 397 -464 420 -27 15 -72 16 -98 3 -10 -6 -34 -40
-51 -76 -40 -83 -84 -119 -219 -183 -191 -90 -423 -151 -859 -225 -393 -67
-680 -100 -1117 -127 -219 -13 -980 -7 -1106 10 -137 18 -217 79 -388 293
-135 168 -186 250 -231 369 l-33 84 1 178 1 178 30 37 c49 61 135 124 239 176
122 61 297 136 387 167 l68 23 -23 18 c-13 10 -77 45 -143 77 -228 112 -538
206 -798 241 -90 12 -308 11 -382 -1z"/>
</g>
</svg>
