<?xml version="1.0" standalone="no"?>
<!DOCTYPE svg PUBLIC "-//W3C//DTD SVG 20010904//EN"
 "http://www.w3.org/TR/2001/REC-SVG-20010904/DTD/svg10.dtd">
<svg version="1.0" xmlns="http://www.w3.org/2000/svg"
 width="1920.000000pt" height="2160.000000pt" viewBox="0 0 1920.000000 2160.000000"
 preserveAspectRatio="xMidYMid meet">

<g transform="translate(0.000000,2160.000000) scale(0.100000,-0.100000)"
fill="#000000" stroke="none">
<path d="M4330 19230 c-214 -46 -372 -136 -558 -314 -204 -197 -376 -528 -441
-851 -11 -55 -30 -181 -41 -280 -85 -733 -236 -1429 -459 -2116 -91 -279 -130
-345 -314 -531 -339 -343 -580 -639 -832 -1022 -277 -420 -476 -817 -673
-1342 -282 -751 -478 -1501 -534 -2044 -16 -160 -16 -646 0 -810 55 -541 256
-1515 461 -2235 118 -416 285 -921 393 -1190 196 -489 502 -999 856 -1425 128
-154 516 -540 677 -674 802 -667 1692 -1094 2708 -1300 489 -100 833 -148
1322 -188 247 -20 1156 -17 1400 5 796 71 1455 213 2175 470 561 200 1102 470
1595 795 470 310 942 709 1433 1210 934 954 1711 2071 2342 3365 194 399 252
528 776 1739 267 618 535 1233 594 1368 344 779 715 1710 1040 2610 135 372
198 575 244 780 127 570 137 1147 30 1709 -44 231 -103 348 -246 487 -103 100
-208 171 -352 239 -240 113 -491 141 -764 84 -123 -25 -148 -33 -387 -119
-472 -170 -979 -413 -1475 -705 -198 -116 -525 -279 -745 -370 -438 -183
-1025 -342 -1470 -399 -319 -41 -876 -47 -1160 -12 -444 55 -885 170 -1322
345 -751 300 -1667 509 -2423 551 -489 28 -460 25 -543 63 -238 110 -654 378
-942 606 -197 155 -336 281 -615 556 -342 336 -566 523 -855 715 -117 77 -290
165 -392 199 -155 52 -352 64 -503 31z m306 -430 c375 -99 739 -326 1013 -632
79 -88 89 -104 113 -180 15 -46 29 -94 32 -108 3 -14 18 -83 35 -155 16 -71
40 -189 51 -261 l22 -132 -38 -68 c-56 -103 -51 -102 -92 -21 -89 178 -268
277 -504 277 -281 0 -603 -237 -954 -703 -201 -266 -398 -575 -730 -1144 -109
-189 -203 -343 -207 -343 -4 0 -31 47 -59 104 l-50 105 21 63 c39 114 205 865
275 1243 45 238 105 608 151 920 42 287 67 381 145 540 71 144 130 224 248
336 158 151 258 204 362 194 30 -4 105 -19 166 -35z m13157 -1491 c67 -35 111
-76 170 -157 151 -213 241 -453 267 -717 23 -231 1 -387 -125 -884 -191 -753
-409 -1428 -697 -2156 -100 -252 -88 -234 -244 -361 -116 -95 -295 -259 -634
-579 -256 -242 -358 -336 -593 -547 l-142 -128 -67 0 -68 0 0 49 c0 31 5 53
15 61 23 19 45 106 45 176 0 53 -4 67 -26 93 -41 50 -100 61 -311 61 l-183 0
0 48 c0 39 8 59 45 117 71 110 86 151 92 240 3 64 1 87 -14 115 -24 46 -72 76
-141 90 -139 26 -188 41 -212 66 -39 39 -33 123 25 309 69 222 95 345 102 476
6 127 -5 201 -39 244 -18 24 -25 25 -114 25 -108 0 -147 12 -187 59 -63 75
-87 267 -69 560 27 425 39 539 64 574 100 141 453 506 663 686 66 57 194 160
284 229 91 70 248 194 350 276 429 344 572 457 686 538 296 210 598 359 880
433 113 30 126 30 178 4z m-9136 -772 l1282 -212 50 -75 c94 -139 215 -284
356 -425 213 -215 330 -308 980 -786 337 -247 558 -444 706 -629 248 -311 385
-651 424 -1060 40 -410 -3 -563 -184 -655 -36 -18 -85 -38 -108 -45 l-42 -13
78 -83 c144 -152 402 -564 576 -919 196 -402 328 -763 386 -1057 30 -149 32
-355 5 -443 -29 -97 -76 -175 -151 -251 -81 -81 -163 -138 -328 -224 -64 -34
-117 -64 -117 -67 0 -7 90 -122 303 -388 438 -547 587 -826 590 -1105 2 -122
-15 -192 -58 -234 -41 -41 -66 -46 -225 -46 -123 0 -130 -1 -159 -26 -40 -33
-51 -77 -51 -204 0 -262 67 -546 202 -850 94 -214 219 -428 341 -588 45 -59
48 -66 37 -88 -17 -31 -781 -798 -935 -938 -329 -300 -716 -589 -1095 -817
-148 -89 -536 -284 -721 -362 -376 -158 -663 -252 -1117 -366 -587 -147 -1139
-230 -1766 -266 -1100 -64 -2172 95 -3206 475 -559 205 -1033 473 -1484 840
-550 446 -1060 1089 -1394 1755 -185 370 -273 602 -413 1090 -44 154 -130 444
-191 645 -198 658 -258 932 -315 1440 -13 120 -17 244 -18 550 0 630 -21 510
300 1718 l271 1024 181 191 c99 106 383 397 630 647 247 250 465 472 483 494
l34 38 -29 84 c-29 83 -29 83 -9 105 115 129 928 679 1517 1027 75 45 137 79
137 77 0 -3 -15 -25 -34 -49 -92 -121 -81 -258 28 -354 59 -52 121 -66 265
-59 147 6 250 27 614 128 395 109 432 123 493 183 69 69 96 142 98 256 1 72
-3 92 -24 133 -33 65 -107 132 -188 170 -63 29 -76 32 -211 37 l-143 5 178 84
c99 47 242 115 319 152 189 90 385 180 470 217 396 171 896 329 1050 331 28 0
627 -95 1332 -212z m-3741 -809 c27 -24 35 -60 22 -104 -7 -26 -19 -39 -51
-55 -23 -11 -72 -52 -108 -90 -63 -66 -67 -69 -113 -69 -65 0 -96 31 -96 95 0
42 4 50 73 122 39 42 92 89 117 105 39 25 51 28 90 23 25 -4 55 -16 66 -27z"/>
<path d="M5587 14799 c-16 -9 -15 -14 15 -56 54 -75 287 -293 398 -373 128
-92 190 -150 190 -179 0 -12 -7 -38 -15 -58 -8 -19 -15 -48 -15 -63 0 -24 -5
-28 -37 -34 -21 -3 -101 -6 -178 -6 -240 0 -567 -35 -820 -86 -401 -81 -774
-210 -1143 -394 -844 -422 -1360 -937 -1781 -1781 -398 -797 -553 -1697 -445
-2589 85 -706 385 -1439 835 -2037 130 -172 245 -292 435 -455 628 -537 1282
-911 2004 -1146 850 -277 1790 -342 2760 -192 235 37 594 143 860 255 386 163
878 449 1235 719 408 307 726 666 963 1082 242 425 389 861 458 1354 25 176
25 601 1 795 -31 242 -173 917 -252 1200 -132 469 -374 920 -690 1285 -422
486 -1279 1085 -2110 1474 -610 285 -1163 446 -1714 497 l-126 12 3 39 c3 31
12 44 41 66 20 15 71 55 114 90 153 122 307 180 641 237 l38 6 -32 24 c-48 35
-150 73 -232 86 -130 20 -319 -6 -435 -60 -104 -49 -163 -119 -219 -260 -9
-20 -16 -5 -53 110 -50 154 -78 216 -130 279 -71 89 -142 133 -248 155 -78 17
-289 19 -316 4z"/>
<path d="M10265 14767 c-110 -29 -170 -87 -203 -195 -59 -188 -30 -341 90
-478 89 -102 160 -151 380 -259 234 -116 304 -143 567 -220 370 -107 474 -107
580 -3 86 84 135 206 136 338 0 77 -3 92 -34 155 -29 58 -60 96 -180 216 -151
150 -216 199 -382 288 -149 79 -241 109 -392 127 -73 8 -161 19 -197 24 -119
17 -311 21 -365 7z m595 -118 c65 -10 136 -31 171 -50 30 -16 52 -67 45 -105
-13 -66 -95 -94 -178 -60 -46 20 -203 36 -342 36 -68 0 -126 5 -141 12 -30 13
-55 55 -55 91 0 28 34 75 64 88 26 11 345 3 436 -12z m441 -145 c37 -39 33
-98 -9 -135 -45 -41 -84 -39 -129 6 -31 31 -35 40 -30 72 9 56 41 83 97 83 37
0 51 -5 71 -26z"/>
</g>
</svg>
